<svg xmlns="http://www.w3.org/2000/svg" width="2048" height="1024" viewBox="0 0 2048 1024">
  <defs>
    <linearGradient id="dsgGold" x1="0" y1="0" x2="1" y2="0">
      <stop offset="0" stop-color="#F3B54A" stop-opacity="0"/>
      <stop offset="0.24" stop-color="#F3B54A" stop-opacity="0.37"/>
      <stop offset="0.75" stop-color="#ED8B3C" stop-opacity="0.27"/>
      <stop offset="1" stop-color="#F3B54A" stop-opacity="0"/>
    </linearGradient>
    <pattern id="dsgGrain" width="38" height="38" patternUnits="userSpaceOnUse">
      <circle cx="5" cy="8" r="1" fill="#FFF1DD" fill-opacity="0.07"/><circle cx="24" cy="17" r="0.7" fill="#FFF1DD" fill-opacity="0.05"/>
    </pattern>
  </defs>
  <rect width="2048" height="1024" fill="#3B2A24" fill-opacity="0.52"/>
  <rect width="2048" height="1024" fill="url(#dsgGrain)" opacity="0.88"/>
  <g fill="none" stroke="url(#dsgGold)" stroke-linecap="round">
    <path d="M-180 220C65 24 312 100 474 272S876 494 1107 320S1572 91 1794 266S2090 408 2190 331" stroke-width="3"/>
    <path d="M-180 840C92 690 346 730 526 866S940 1012 1164 860S1601 674 1819 813S2078 918 2172 867" stroke-width="2" stroke-opacity="0.74"/>
  </g>
  <path d="M208 640C344 468 548 459 689 603S1011 770 1166 631S1498 485 1647 627" fill="none" stroke="#55D4C6" stroke-width="3" stroke-opacity="0.31"/>
  <g transform="translate(1580 264)" fill="none" stroke="#55D4C6">
    <circle r="68" stroke-opacity="0.30"/>
    <circle r="46" stroke-width="1.5" stroke-opacity="0.24" stroke-dasharray="5 9"/>
    <circle r="6" fill="#55D4C6" fill-opacity="0.40" stroke="none"/>
  </g>
  <g fill="none" stroke="#F3B54A" stroke-opacity="0.27">
    <path d="M64 68H226M64 68V218"/><path d="M1984 956H1822M1984 956V806"/>
  </g>
</svg>
