<svg width="24" height="24" xmlns="http://www.w3.org/2000/svg">
  <g fill="none" stroke-linecap="round" stroke-linejoin="round">
    <g stroke="#0a4a28" stroke-width="1.8" opacity="0.65">
      <path d="M-3 1 L0 6 L3 1"/>
      <path d="M3 1 L6 6 L9 1"/>
      <path d="M9 1 L12 6 L15 1"/>
      <path d="M15 1 L18 6 L21 1"/>
      <path d="M21 1 L24 6 L27 1"/>
      <path d="M-3 13 L0 18 L3 13"/>
      <path d="M3 13 L6 18 L9 13"/>
      <path d="M9 13 L12 18 L15 13"/>
      <path d="M15 13 L18 18 L21 13"/>
      <path d="M21 13 L24 18 L27 13"/>
    </g>
    <g stroke="#0e5c34" stroke-width="1.8" opacity="0.5">
      <path d="M-3 7 L0 12 L3 7"/>
      <path d="M3 7 L6 12 L9 7"/>
      <path d="M9 7 L12 12 L15 7"/>
      <path d="M15 7 L18 12 L21 7"/>
      <path d="M21 7 L24 12 L27 7"/>
      <path d="M-3 19 L0 24 L3 19"/>
      <path d="M3 19 L6 24 L9 19"/>
      <path d="M9 19 L12 24 L15 19"/>
      <path d="M15 19 L18 24 L21 19"/>
      <path d="M21 19 L24 24 L27 19"/>
    </g>
  </g>
</svg>
