<svg xmlns="http://www.w3.org/2000/svg" width="2048" height="1024" viewBox="0 0 2048 1024">
  <defs>
    <pattern id="crgScan" width="8" height="8" patternUnits="userSpaceOnUse">
      <path d="M0 0H8" stroke="#C8C1C5" stroke-width="1" stroke-opacity="0.035"/>
      <path d="M0 4H8" stroke="#FF3B5C" stroke-width="1" stroke-opacity="0.02"/>
    </pattern>
    <linearGradient id="crgSignal" x1="0" y1="0" x2="1" y2="0">
      <stop offset="0" stop-color="#FF3B5C" stop-opacity="0"/>
      <stop offset="0.22" stop-color="#FF3B5C" stop-opacity="0.46"/>
      <stop offset="0.76" stop-color="#A93850" stop-opacity="0.28"/>
      <stop offset="1" stop-color="#FF3B5C" stop-opacity="0"/>
    </linearGradient>
  </defs>
  <rect width="2048" height="1024" fill="#101014" fill-opacity="0.58"/>
  <rect width="2048" height="1024" fill="url(#crgScan)" opacity="0.88"/>
  <path d="M-108 582C224 504 465 658 777 555S1352 453 1642 546S1986 610 2158 500" fill="none" stroke="url(#crgSignal)" stroke-width="4"/>
  <g transform="translate(1550 402)" fill="none" stroke="#FF3B5C">
    <circle r="176" stroke-width="1.5" stroke-opacity="0.22"/>
    <circle r="136" stroke-opacity="0.31" stroke-dasharray="11 17"/>
    <path d="M-212 0H212M0-212V212" stroke-opacity="0.12"/>
    <circle r="4" fill="#FF3B5C" fill-opacity="0.52" stroke="none"/>
  </g>
  <g fill="#FF3B5C" fill-opacity="0.28" shape-rendering="crispEdges">
    <rect x="44" y="302" width="118" height="2"/><rect x="188" y="298" width="28" height="4"/><rect x="286" y="307" width="154" height="1"/>
    <rect x="986" y="715" width="132" height="2"/><rect x="1162" y="708" width="10" height="5"/><rect x="1224" y="718" width="210" height="1"/>
  </g>
  <g fill="none" stroke="#A93850" stroke-opacity="0.26">
    <path d="M66 62H236M66 62V226"/><path d="M1982 962H1812M1982 962V798"/>
  </g>
</svg>
